<?xml version="1.0" standalone="no"?>
<!DOCTYPE svg PUBLIC "-//W3C//DTD SVG 20010904//EN"
 "http://www.w3.org/TR/2001/REC-SVG-20010904/DTD/svg10.dtd">
<svg version="1.0" xmlns="http://www.w3.org/2000/svg"
 width="1247.000000pt" height="1280.000000pt" viewBox="0 0 1247.000000 1280.000000"
 preserveAspectRatio="xMidYMid meet">
<metadata>
Created by potrace 1.15, written by Peter Selinger 2001-2017
</metadata>
<g transform="translate(0.000000,1280.000000) scale(0.100000,-0.100000)"
fill="#026b32" stroke="none">
<path d="M5870 12789 c-1308 -79 -2554 -579 -3590 -1442 -192 -160 -604 -573
-764 -766 -944 -1135 -1460 -2494 -1512 -3978 l-7 -203 480 0 480 0 6 -97 c4
-54 7 -150 7 -213 0 -102 20 -412 35 -560 13 -118 46 -376 51 -392 3 -10 3
-18 -1 -18 -13 0 -190 93 -286 151 -127 76 -258 169 -365 260 -94 80 -145 133
-207 217 l-44 60 -34 -21 c-19 -11 -36 -22 -38 -24 -10 -7 116 -157 196 -234
176 -169 444 -348 734 -489 l65 -33 18 -96 c84 -462 229 -936 423 -1389 8 -18
-9 -11 -202 84 -380 187 -657 398 -801 612 -3 5 -74 -42 -74 -48 0 -3 25 -37
55 -75 66 -83 214 -220 326 -300 162 -117 443 -271 669 -369 l85 -37 90 -175
c167 -326 362 -631 584 -914 108 -137 299 -359 335 -389 36 -30 11 -27 -95 10
-409 144 -748 322 -976 512 -83 69 -175 167 -202 214 -9 17 -11 17 -45 -1 -20
-11 -36 -24 -36 -29 0 -18 77 -111 152 -183 246 -238 626 -442 1148 -618 l220
-74 107 -102 c266 -254 652 -545 1012 -762 229 -139 571 -320 700 -371 24 -10
42 -20 40 -22 -2 -2 -90 12 -194 31 -827 150 -1478 435 -1823 798 -55 59 -119
142 -148 194 -2 4 -74 -39 -74 -44 0 -24 95 -142 194 -239 216 -215 475 -374
851 -523 353 -140 811 -255 1265 -317 248 -33 251 -34 444 -105 227 -82 387
-133 591 -186 246 -63 417 -97 426 -83 5 8 8 8 10 0 3 -9 42 -5 139 14 296 57
663 161 974 275 121 44 160 53 300 71 1018 129 1786 396 2279 792 87 70 217
205 217 225 0 4 -14 17 -31 29 l-31 21 -86 -89 c-263 -277 -725 -517 -1322
-688 -209 -60 -633 -149 -830 -175 -45 -5 -45 -5 25 26 126 57 454 226 588
305 437 254 822 541 1158 861 l87 82 133 39 c452 133 858 308 1141 493 121 79
241 172 288 222 l24 27 -31 31 -32 31 -48 -47 c-210 -208 -656 -441 -1167
-610 -93 -31 -171 -56 -174 -56 -2 0 25 32 59 71 380 426 659 832 891 1295
l71 141 146 59 c172 69 488 226 619 308 171 107 413 300 411 329 0 7 -14 23
-30 36 l-31 24 -66 -65 c-146 -140 -330 -262 -607 -401 -104 -52 -380 -177
-391 -177 -2 0 9 26 23 58 148 331 309 858 388 1262 14 74 28 145 30 156 4 16
32 33 112 69 388 172 698 365 901 559 l73 71 -33 26 -32 27 -71 -65 c-93 -87
-229 -188 -367 -274 -109 -68 -548 -293 -556 -285 -2 2 6 71 17 153 41 299 56
486 77 996 l6 137 541 0 540 0 -7 203 c-43 1229 -406 2376 -1071 3387 -240
364 -480 656 -814 990 -338 338 -598 552 -966 795 -1116 738 -2426 1093 -3745
1014z m-4152 -6423 c95 -28 378 -101 503 -130 l26 -6 6 -272 c9 -370 39 -735
93 -1107 14 -95 23 -175 21 -178 -5 -4 -201 44 -357 88 -250 71 -586 191 -821
292 -41 18 -34 -8 -69 257 -38 283 -70 738 -70 993 l0 97 275 0 275 0 118 -34z
m524 -2 c2 -19 2 -37 -1 -38 -3 -2 -76 14 -161 35 l-155 38 156 0 157 1 4 -36z
m1888 -139 c0 -138 -3 -175 -13 -175 -26 0 -346 31 -522 51 -373 42 -937 130
-1212 189 l-53 12 0 49 0 49 900 0 900 0 0 -175z m1860 -39 l0 -215 -32 4
c-18 2 -217 7 -443 10 -225 3 -502 10 -615 15 -236 12 -673 39 -676 43 -1 1
-5 82 -9 180 l-7 177 891 0 891 0 0 -214z m1830 30 l0 -185 -42 -5 c-126 -16
-876 -42 -1410 -49 l-288 -4 0 213 0 214 870 0 870 0 0 -184z m1670 90 c0 -89
-1 -94 -22 -99 -53 -13 -463 -69 -713 -96 -341 -38 -832 -82 -845 -75 -3 1 -4
83 -2 183 l3 181 789 0 790 0 0 -94z m870 73 c-98 -25 -479 -103 -647 -133
l-133 -23 0 88 0 89 428 -1 427 -1 -75 -19z m940 -71 c0 -112 -16 -424 -30
-603 -20 -245 -71 -620 -86 -635 -29 -27 -561 -207 -839 -284 -249 -68 -901
-214 -911 -203 -1 1 4 38 12 82 49 280 107 869 119 1210 3 88 8 183 11 210 l5
50 187 33 c293 51 755 155 942 211 57 17 97 20 328 20 l262 1 0 -92z m-8813
-127 c407 -81 980 -161 1433 -201 69 -6 143 -13 166 -16 l41 -5 7 -282 c8
-335 30 -758 56 -1062 10 -121 16 -222 14 -224 -8 -9 -480 42 -789 85 -336 46
-931 155 -946 172 -8 9 -53 317 -74 502 -24 215 -44 495 -55 769 -12 290 -12
291 -6 291 3 0 72 -13 153 -29z m6998 -183 c-12 -252 -37 -589 -56 -773 -18
-178 -74 -594 -85 -641 -5 -20 -21 -24 -172 -48 -232 -37 -567 -82 -789 -105
-259 -28 -554 -54 -559 -49 -2 2 5 112 16 244 23 294 49 770 58 1084 l7 235
155 12 c420 32 853 79 1185 128 121 18 226 33 233 34 10 1 11 -25 7 -121z
m-4820 -73 c356 -20 838 -35 1108 -35 l217 0 0 -790 c0 -625 -3 -790 -12 -790
-408 4 -1056 27 -1428 50 -252 16 -248 15 -255 53 -22 128 -63 834 -72 1236
l-6 304 89 -6 c49 -4 211 -14 359 -22z m3151 -42 c-3 -32 -8 -157 -11 -278 -9
-354 -63 -1217 -77 -1230 -4 -4 -289 -23 -528 -35 -152 -8 -917 -28 -1101 -30
-25 0 -29 192 -22 933 l6 647 276 0 c313 0 852 16 1171 35 118 7 232 13 253
14 l38 1 -5 -57z m3320 -1102 c-91 -427 -248 -916 -396 -1238 l-38 -81 -198
-65 c-251 -82 -359 -114 -610 -176 -308 -76 -837 -181 -850 -169 -2 3 20 79
51 169 114 336 200 656 274 1026 26 128 49 234 52 237 2 2 94 22 204 45 546
109 1105 265 1455 403 47 19 86 31 88 26 2 -4 -13 -84 -32 -177z m-9841 133
c253 -105 614 -221 914 -296 91 -22 169 -44 173 -47 4 -4 26 -96 48 -206 83
-403 180 -748 312 -1103 27 -74 48 -135 46 -137 -5 -6 -253 52 -448 105 -284
76 -669 206 -696 233 -30 31 -179 411 -263 672 -84 258 -223 825 -202 825 3 0
56 -21 116 -46z m1390 -404 c393 -80 941 -159 1405 -201 69 -6 126 -12 127
-13 1 0 6 -48 13 -106 33 -320 106 -793 169 -1100 22 -107 39 -195 38 -196 -3
-3 -384 32 -552 51 -354 41 -960 138 -982 159 -26 24 -167 422 -243 685 -50
174 -110 421 -145 596 -14 72 -27 138 -30 149 -3 15 1 17 23 12 15 -3 95 -19
177 -36z m6635 -54 c0 -57 -127 -613 -191 -836 -46 -159 -182 -575 -193 -587
-15 -17 -769 -106 -1126 -133 -80 -6 -158 -12 -173 -14 -25 -2 -27 0 -22 23
54 259 138 832 180 1230 8 80 16 146 18 147 1 2 83 10 182 19 394 34 834 88
1145 139 180 29 180 29 180 12z m-4730 -186 c338 -22 573 -31 978 -37 l422 -6
0 -487 c0 -268 3 -582 7 -699 l6 -213 -284 7 c-552 12 -1167 41 -1182 55 -31
28 -188 967 -222 1329 l-7 74 63 -7 c35 -3 134 -10 219 -16z m3125 -52 c-41
-389 -75 -646 -130 -973 -24 -143 -49 -283 -55 -312 l-11 -52 -52 -5 c-170
-19 -1362 -54 -1375 -41 -4 4 -8 319 -10 701 l-3 694 258 0 c290 0 771 15
1069 34 110 7 225 14 257 15 l59 1 -7 -62z m2861 -1012 c-233 -449 -510 -839
-875 -1233 -96 -104 -130 -135 -159 -142 -184 -50 -531 -125 -764 -166 -132
-23 -478 -75 -499 -75 -5 0 34 64 87 142 228 338 448 755 596 1128 16 41 33
79 37 83 4 4 109 26 232 48 477 85 1000 215 1334 333 39 13 74 25 78 25 5 1
-25 -64 -67 -143z m-8731 84 c243 -84 543 -169 815 -230 74 -16 144 -32 156
-35 15 -3 29 -25 49 -72 44 -107 207 -437 274 -557 128 -226 317 -510 459
-690 l55 -69 -49 7 c-161 24 -602 121 -756 166 -63 19 -71 26 -173 132 -226
236 -417 474 -600 748 -194 292 -400 662 -358 645 10 -4 68 -24 128 -45z
m1207 -310 c329 -62 849 -131 1223 -161 83 -7 160 -16 171 -20 15 -5 24 -20
28 -46 11 -62 94 -368 138 -508 83 -268 206 -602 260 -709 l20 -39 -104 7
c-252 17 -627 57 -911 97 l-88 12 -53 63 c-145 170 -350 469 -491 714 -108
187 -316 610 -300 610 2 0 50 -9 107 -20z m5838 -59 c0 -20 -140 -332 -225
-501 -140 -280 -307 -557 -462 -768 -31 -42 -56 -78 -57 -79 -7 -10 -915 -87
-924 -78 -2 2 1 12 6 22 15 27 109 300 152 443 67 220 161 586 200 783 l11 57
47 0 c120 0 733 62 1032 104 190 27 220 29 220 17z m-3678 -160 c153 -6 393
-11 533 -11 l255 0 0 -51 c0 -153 20 -1151 24 -1191 l5 -48 -142 0 c-168 0
-672 17 -806 26 l-93 7 -35 76 c-86 187 -215 550 -292 816 -52 181 -101 373
-101 394 0 15 16 15 188 4 103 -6 312 -16 464 -22z m2283 7 c-103 -469 -201
-824 -316 -1138 l-51 -139 -52 -6 c-65 -7 -647 -25 -827 -25 l-136 0 -6 258
c-4 141 -10 431 -14 645 l-6 387 277 0 c270 0 711 14 951 29 199 13 186 14
180 -11z m1919 -1079 c-63 -70 -390 -336 -579 -471 -402 -287 -914 -566 -1374
-750 -60 -23 -104 -32 -220 -43 -227 -22 -220 -26 -105 53 351 238 692 557
983 919 67 84 77 93 115 98 430 57 934 147 1121 199 73 21 82 20 59 -5z
m-6104 -79 c80 -16 209 -41 287 -54 l142 -25 38 -43 c359 -403 747 -730 1186
-994 50 -31 94 -59 97 -62 3 -2 -22 -2 -56 1 -77 8 -295 99 -604 253 -422 211
-790 444 -1140 722 -122 97 -329 274 -329 283 -1 3 52 -7 117 -22 64 -16 182
-43 262 -59z m773 -125 c212 -27 555 -60 733 -71 l111 -7 47 -95 c167 -335
388 -668 574 -864 l55 -58 -44 1 c-24 0 -94 4 -155 8 l-111 8 -139 78 c-383
213 -720 465 -1033 770 -131 128 -250 255 -238 255 2 0 92 -11 200 -25z m3966
-32 c-94 -122 -150 -185 -333 -372 -255 -260 -542 -489 -812 -649 l-71 -43
-107 3 -107 3 47 60 c162 208 362 565 484 862 l33 82 51 5 c28 3 152 12 276
21 124 9 279 22 345 29 66 8 140 14 164 15 40 1 42 0 30 -16z m-2479 -73 c184
-5 362 -10 396 -10 l60 0 18 -422 c9 -233 20 -456 23 -495 l6 -73 -170 0 -170
0 -80 83 c-204 213 -411 514 -569 830 l-55 109 103 -6 c57 -4 254 -11 438 -16z
m1511 -2 c-119 -307 -374 -748 -547 -946 l-46 -52 -163 0 -163 0 -6 63 c-9 86
-36 711 -36 828 l0 97 268 6 c227 6 603 19 679 24 19 2 21 -1 14 -20z m-36
-1063 c-46 -18 -339 -104 -342 -101 -3 2 33 24 79 48 60 31 99 45 143 49 73 7
134 9 120 4z m-1285 -74 c38 -31 67 -57 66 -59 -4 -3 -289 109 -298 117 -4 3
32 4 79 2 l86 -3 67 -57z m791 3 c-62 -30 -115 -53 -117 -51 -2 2 20 27 50 55
54 52 55 52 118 51 l63 -1 -114 -54z m-467 -35 c4 -44 5 -83 2 -86 -5 -5 -172
103 -226 146 l-25 21 121 0 121 0 7 -81z m266 31 c-65 -58 -158 -125 -165
-118 -3 3 -8 42 -12 87 l-6 81 119 0 119 -1 -55 -49z"/>
</g>
</svg>
